<mxfile host="app.diagrams.net" modified="2021-07-01T15:17:13.038Z" agent="5.0 (X11)" etag="rwwRnDgsU97YuaOIPRTr" version="14.8.3" type="github">
  <diagram id="IQiCYrLMm9XjEDy3LCSJ" name="Page-1">
    <mxGraphModel dx="2205" dy="1893" grid="1" gridSize="10" guides="1" tooltips="1" connect="1" arrows="1" fold="1" page="1" pageScale="1" pageWidth="850" pageHeight="1100" math="0" shadow="0">
      <root>
        <mxCell id="0" />
        <mxCell id="1" parent="0" />
        <mxCell id="rpx8abucDV3JL9LRYKTu-3" value="Products" style="shape=table;startSize=30;container=1;collapsible=1;childLayout=tableLayout;fixedRows=1;rowLines=0;fontStyle=1;align=center;resizeLast=1;" vertex="1" parent="1">
          <mxGeometry x="-30" y="170" width="180" height="130" as="geometry" />
        </mxCell>
        <mxCell id="rpx8abucDV3JL9LRYKTu-4" value="" style="shape=partialRectangle;collapsible=0;dropTarget=0;pointerEvents=0;fillColor=none;top=0;left=0;bottom=1;right=0;points=[[0,0.5],[1,0.5]];portConstraint=eastwest;" vertex="1" parent="rpx8abucDV3JL9LRYKTu-3">
          <mxGeometry y="30" width="180" height="30" as="geometry" />
        </mxCell>
        <mxCell id="rpx8abucDV3JL9LRYKTu-5" value="PK" style="shape=partialRectangle;connectable=0;fillColor=none;top=0;left=0;bottom=0;right=0;fontStyle=1;overflow=hidden;" vertex="1" parent="rpx8abucDV3JL9LRYKTu-4">
          <mxGeometry width="30" height="30" as="geometry" />
        </mxCell>
        <mxCell id="rpx8abucDV3JL9LRYKTu-6" value="product_id" style="shape=partialRectangle;connectable=0;fillColor=none;top=0;left=0;bottom=0;right=0;align=left;spacingLeft=6;fontStyle=5;overflow=hidden;" vertex="1" parent="rpx8abucDV3JL9LRYKTu-4">
          <mxGeometry x="30" width="150" height="30" as="geometry" />
        </mxCell>
        <mxCell id="rpx8abucDV3JL9LRYKTu-7" value="" style="shape=partialRectangle;collapsible=0;dropTarget=0;pointerEvents=0;fillColor=none;top=0;left=0;bottom=0;right=0;points=[[0,0.5],[1,0.5]];portConstraint=eastwest;" vertex="1" parent="rpx8abucDV3JL9LRYKTu-3">
          <mxGeometry y="60" width="180" height="30" as="geometry" />
        </mxCell>
        <mxCell id="rpx8abucDV3JL9LRYKTu-8" value="" style="shape=partialRectangle;connectable=0;fillColor=none;top=0;left=0;bottom=0;right=0;editable=1;overflow=hidden;" vertex="1" parent="rpx8abucDV3JL9LRYKTu-7">
          <mxGeometry width="30" height="30" as="geometry" />
        </mxCell>
        <mxCell id="rpx8abucDV3JL9LRYKTu-9" value="category_id" style="shape=partialRectangle;connectable=0;fillColor=none;top=0;left=0;bottom=0;right=0;align=left;spacingLeft=6;overflow=hidden;" vertex="1" parent="rpx8abucDV3JL9LRYKTu-7">
          <mxGeometry x="30" width="150" height="30" as="geometry" />
        </mxCell>
        <mxCell id="rpx8abucDV3JL9LRYKTu-10" value="" style="shape=partialRectangle;collapsible=0;dropTarget=0;pointerEvents=0;fillColor=none;top=0;left=0;bottom=0;right=0;points=[[0,0.5],[1,0.5]];portConstraint=eastwest;" vertex="1" parent="rpx8abucDV3JL9LRYKTu-3">
          <mxGeometry y="90" width="180" height="30" as="geometry" />
        </mxCell>
        <mxCell id="rpx8abucDV3JL9LRYKTu-11" value="" style="shape=partialRectangle;connectable=0;fillColor=none;top=0;left=0;bottom=0;right=0;editable=1;overflow=hidden;" vertex="1" parent="rpx8abucDV3JL9LRYKTu-10">
          <mxGeometry width="30" height="30" as="geometry" />
        </mxCell>
        <mxCell id="rpx8abucDV3JL9LRYKTu-12" value="brand_id" style="shape=partialRectangle;connectable=0;fillColor=none;top=0;left=0;bottom=0;right=0;align=left;spacingLeft=6;overflow=hidden;" vertex="1" parent="rpx8abucDV3JL9LRYKTu-10">
          <mxGeometry x="30" width="150" height="30" as="geometry" />
        </mxCell>
        <mxCell id="rpx8abucDV3JL9LRYKTu-16" value="orders" style="shape=table;startSize=30;container=1;collapsible=1;childLayout=tableLayout;fixedRows=1;rowLines=0;fontStyle=1;align=center;resizeLast=1;" vertex="1" parent="1">
          <mxGeometry x="600" y="190" width="180" height="130" as="geometry" />
        </mxCell>
        <mxCell id="rpx8abucDV3JL9LRYKTu-17" value="" style="shape=partialRectangle;collapsible=0;dropTarget=0;pointerEvents=0;fillColor=none;top=0;left=0;bottom=1;right=0;points=[[0,0.5],[1,0.5]];portConstraint=eastwest;" vertex="1" parent="rpx8abucDV3JL9LRYKTu-16">
          <mxGeometry y="30" width="180" height="30" as="geometry" />
        </mxCell>
        <mxCell id="rpx8abucDV3JL9LRYKTu-18" value="PK" style="shape=partialRectangle;connectable=0;fillColor=none;top=0;left=0;bottom=0;right=0;fontStyle=1;overflow=hidden;" vertex="1" parent="rpx8abucDV3JL9LRYKTu-17">
          <mxGeometry width="30" height="30" as="geometry" />
        </mxCell>
        <mxCell id="rpx8abucDV3JL9LRYKTu-19" value="order_id" style="shape=partialRectangle;connectable=0;fillColor=none;top=0;left=0;bottom=0;right=0;align=left;spacingLeft=6;fontStyle=5;overflow=hidden;" vertex="1" parent="rpx8abucDV3JL9LRYKTu-17">
          <mxGeometry x="30" width="150" height="30" as="geometry" />
        </mxCell>
        <mxCell id="rpx8abucDV3JL9LRYKTu-20" value="" style="shape=partialRectangle;collapsible=0;dropTarget=0;pointerEvents=0;fillColor=none;top=0;left=0;bottom=0;right=0;points=[[0,0.5],[1,0.5]];portConstraint=eastwest;" vertex="1" parent="rpx8abucDV3JL9LRYKTu-16">
          <mxGeometry y="60" width="180" height="30" as="geometry" />
        </mxCell>
        <mxCell id="rpx8abucDV3JL9LRYKTu-21" value="FK" style="shape=partialRectangle;connectable=0;fillColor=none;top=0;left=0;bottom=0;right=0;editable=1;overflow=hidden;" vertex="1" parent="rpx8abucDV3JL9LRYKTu-20">
          <mxGeometry width="30" height="30" as="geometry" />
        </mxCell>
        <mxCell id="rpx8abucDV3JL9LRYKTu-22" value="customer_id" style="shape=partialRectangle;connectable=0;fillColor=none;top=0;left=0;bottom=0;right=0;align=left;spacingLeft=6;overflow=hidden;" vertex="1" parent="rpx8abucDV3JL9LRYKTu-20">
          <mxGeometry x="30" width="150" height="30" as="geometry" />
        </mxCell>
        <mxCell id="rpx8abucDV3JL9LRYKTu-23" value="" style="shape=partialRectangle;collapsible=0;dropTarget=0;pointerEvents=0;fillColor=none;top=0;left=0;bottom=0;right=0;points=[[0,0.5],[1,0.5]];portConstraint=eastwest;" vertex="1" parent="rpx8abucDV3JL9LRYKTu-16">
          <mxGeometry y="90" width="180" height="30" as="geometry" />
        </mxCell>
        <mxCell id="rpx8abucDV3JL9LRYKTu-24" value="" style="shape=partialRectangle;connectable=0;fillColor=none;top=0;left=0;bottom=0;right=0;editable=1;overflow=hidden;" vertex="1" parent="rpx8abucDV3JL9LRYKTu-23">
          <mxGeometry width="30" height="30" as="geometry" />
        </mxCell>
        <mxCell id="rpx8abucDV3JL9LRYKTu-25" value="" style="shape=partialRectangle;connectable=0;fillColor=none;top=0;left=0;bottom=0;right=0;align=left;spacingLeft=6;overflow=hidden;" vertex="1" parent="rpx8abucDV3JL9LRYKTu-23">
          <mxGeometry x="30" width="150" height="30" as="geometry" />
        </mxCell>
        <mxCell id="rpx8abucDV3JL9LRYKTu-42" value="Product_Sizes" style="shape=table;startSize=30;container=1;collapsible=1;childLayout=tableLayout;fixedRows=1;rowLines=0;fontStyle=1;align=center;resizeLast=1;" vertex="1" parent="1">
          <mxGeometry x="-150" y="400" width="180" height="130" as="geometry" />
        </mxCell>
        <mxCell id="rpx8abucDV3JL9LRYKTu-43" value="" style="shape=partialRectangle;collapsible=0;dropTarget=0;pointerEvents=0;fillColor=none;top=0;left=0;bottom=0;right=0;points=[[0,0.5],[1,0.5]];portConstraint=eastwest;" vertex="1" parent="rpx8abucDV3JL9LRYKTu-42">
          <mxGeometry y="30" width="180" height="30" as="geometry" />
        </mxCell>
        <mxCell id="rpx8abucDV3JL9LRYKTu-44" value="PK,FK1" style="shape=partialRectangle;connectable=0;fillColor=none;top=0;left=0;bottom=0;right=0;fontStyle=1;overflow=hidden;" vertex="1" parent="rpx8abucDV3JL9LRYKTu-43">
          <mxGeometry width="60" height="30" as="geometry" />
        </mxCell>
        <mxCell id="rpx8abucDV3JL9LRYKTu-45" value="product_id" style="shape=partialRectangle;connectable=0;fillColor=none;top=0;left=0;bottom=0;right=0;align=left;spacingLeft=6;fontStyle=5;overflow=hidden;" vertex="1" parent="rpx8abucDV3JL9LRYKTu-43">
          <mxGeometry x="60" width="120" height="30" as="geometry" />
        </mxCell>
        <mxCell id="rpx8abucDV3JL9LRYKTu-46" value="" style="shape=partialRectangle;collapsible=0;dropTarget=0;pointerEvents=0;fillColor=none;top=0;left=0;bottom=1;right=0;points=[[0,0.5],[1,0.5]];portConstraint=eastwest;" vertex="1" parent="rpx8abucDV3JL9LRYKTu-42">
          <mxGeometry y="60" width="180" height="30" as="geometry" />
        </mxCell>
        <mxCell id="rpx8abucDV3JL9LRYKTu-47" value="PK,FK2" style="shape=partialRectangle;connectable=0;fillColor=none;top=0;left=0;bottom=0;right=0;fontStyle=1;overflow=hidden;" vertex="1" parent="rpx8abucDV3JL9LRYKTu-46">
          <mxGeometry width="60" height="30" as="geometry" />
        </mxCell>
        <mxCell id="rpx8abucDV3JL9LRYKTu-48" value="size_id" style="shape=partialRectangle;connectable=0;fillColor=none;top=0;left=0;bottom=0;right=0;align=left;spacingLeft=6;fontStyle=5;overflow=hidden;" vertex="1" parent="rpx8abucDV3JL9LRYKTu-46">
          <mxGeometry x="60" width="120" height="30" as="geometry" />
        </mxCell>
        <mxCell id="rpx8abucDV3JL9LRYKTu-49" value="" style="shape=partialRectangle;collapsible=0;dropTarget=0;pointerEvents=0;fillColor=none;top=0;left=0;bottom=0;right=0;points=[[0,0.5],[1,0.5]];portConstraint=eastwest;" vertex="1" parent="rpx8abucDV3JL9LRYKTu-42">
          <mxGeometry y="90" width="180" height="30" as="geometry" />
        </mxCell>
        <mxCell id="rpx8abucDV3JL9LRYKTu-50" value="" style="shape=partialRectangle;connectable=0;fillColor=none;top=0;left=0;bottom=0;right=0;editable=1;overflow=hidden;" vertex="1" parent="rpx8abucDV3JL9LRYKTu-49">
          <mxGeometry width="60" height="30" as="geometry" />
        </mxCell>
        <mxCell id="rpx8abucDV3JL9LRYKTu-51" value="" style="shape=partialRectangle;connectable=0;fillColor=none;top=0;left=0;bottom=0;right=0;align=left;spacingLeft=6;overflow=hidden;" vertex="1" parent="rpx8abucDV3JL9LRYKTu-49">
          <mxGeometry x="60" width="120" height="30" as="geometry" />
        </mxCell>
        <mxCell id="rpx8abucDV3JL9LRYKTu-55" value="Sizes" style="shape=table;startSize=30;container=1;collapsible=1;childLayout=tableLayout;fixedRows=1;rowLines=0;fontStyle=1;align=center;resizeLast=1;" vertex="1" parent="1">
          <mxGeometry x="-150" y="585" width="180" height="120" as="geometry" />
        </mxCell>
        <mxCell id="rpx8abucDV3JL9LRYKTu-56" value="" style="shape=partialRectangle;collapsible=0;dropTarget=0;pointerEvents=0;fillColor=none;top=0;left=0;bottom=1;right=0;points=[[0,0.5],[1,0.5]];portConstraint=eastwest;" vertex="1" parent="rpx8abucDV3JL9LRYKTu-55">
          <mxGeometry y="30" width="180" height="30" as="geometry" />
        </mxCell>
        <mxCell id="rpx8abucDV3JL9LRYKTu-57" value="PK" style="shape=partialRectangle;connectable=0;fillColor=none;top=0;left=0;bottom=0;right=0;fontStyle=1;overflow=hidden;" vertex="1" parent="rpx8abucDV3JL9LRYKTu-56">
          <mxGeometry width="30" height="30" as="geometry" />
        </mxCell>
        <mxCell id="rpx8abucDV3JL9LRYKTu-58" value="size_id" style="shape=partialRectangle;connectable=0;fillColor=none;top=0;left=0;bottom=0;right=0;align=left;spacingLeft=6;fontStyle=5;overflow=hidden;" vertex="1" parent="rpx8abucDV3JL9LRYKTu-56">
          <mxGeometry x="30" width="150" height="30" as="geometry" />
        </mxCell>
        <mxCell id="rpx8abucDV3JL9LRYKTu-59" value="" style="shape=partialRectangle;collapsible=0;dropTarget=0;pointerEvents=0;fillColor=none;top=0;left=0;bottom=0;right=0;points=[[0,0.5],[1,0.5]];portConstraint=eastwest;" vertex="1" parent="rpx8abucDV3JL9LRYKTu-55">
          <mxGeometry y="60" width="180" height="20" as="geometry" />
        </mxCell>
        <mxCell id="rpx8abucDV3JL9LRYKTu-60" value="" style="shape=partialRectangle;connectable=0;fillColor=none;top=0;left=0;bottom=0;right=0;editable=1;overflow=hidden;" vertex="1" parent="rpx8abucDV3JL9LRYKTu-59">
          <mxGeometry width="30" height="20" as="geometry" />
        </mxCell>
        <mxCell id="rpx8abucDV3JL9LRYKTu-61" value="" style="shape=partialRectangle;connectable=0;fillColor=none;top=0;left=0;bottom=0;right=0;align=left;spacingLeft=6;overflow=hidden;" vertex="1" parent="rpx8abucDV3JL9LRYKTu-59">
          <mxGeometry x="30" width="150" height="20" as="geometry" />
        </mxCell>
        <mxCell id="rpx8abucDV3JL9LRYKTu-62" value="" style="shape=partialRectangle;collapsible=0;dropTarget=0;pointerEvents=0;fillColor=none;top=0;left=0;bottom=0;right=0;points=[[0,0.5],[1,0.5]];portConstraint=eastwest;" vertex="1" parent="rpx8abucDV3JL9LRYKTu-55">
          <mxGeometry y="80" width="180" height="30" as="geometry" />
        </mxCell>
        <mxCell id="rpx8abucDV3JL9LRYKTu-63" value="" style="shape=partialRectangle;connectable=0;fillColor=none;top=0;left=0;bottom=0;right=0;editable=1;overflow=hidden;" vertex="1" parent="rpx8abucDV3JL9LRYKTu-62">
          <mxGeometry width="30" height="30" as="geometry" />
        </mxCell>
        <mxCell id="rpx8abucDV3JL9LRYKTu-64" value="" style="shape=partialRectangle;connectable=0;fillColor=none;top=0;left=0;bottom=0;right=0;align=left;spacingLeft=6;overflow=hidden;" vertex="1" parent="rpx8abucDV3JL9LRYKTu-62">
          <mxGeometry x="30" width="150" height="30" as="geometry" />
        </mxCell>
        <mxCell id="rpx8abucDV3JL9LRYKTu-74" value="Colors" style="shape=table;startSize=30;container=1;collapsible=1;childLayout=tableLayout;fixedRows=1;rowLines=0;fontStyle=1;align=center;resizeLast=1;" vertex="1" parent="1">
          <mxGeometry x="100" y="585" width="180" height="130" as="geometry" />
        </mxCell>
        <mxCell id="rpx8abucDV3JL9LRYKTu-75" value="" style="shape=partialRectangle;collapsible=0;dropTarget=0;pointerEvents=0;fillColor=none;top=0;left=0;bottom=1;right=0;points=[[0,0.5],[1,0.5]];portConstraint=eastwest;" vertex="1" parent="rpx8abucDV3JL9LRYKTu-74">
          <mxGeometry y="30" width="180" height="30" as="geometry" />
        </mxCell>
        <mxCell id="rpx8abucDV3JL9LRYKTu-76" value="PK" style="shape=partialRectangle;connectable=0;fillColor=none;top=0;left=0;bottom=0;right=0;fontStyle=1;overflow=hidden;" vertex="1" parent="rpx8abucDV3JL9LRYKTu-75">
          <mxGeometry width="30" height="30" as="geometry" />
        </mxCell>
        <mxCell id="rpx8abucDV3JL9LRYKTu-77" value="color_id" style="shape=partialRectangle;connectable=0;fillColor=none;top=0;left=0;bottom=0;right=0;align=left;spacingLeft=6;fontStyle=5;overflow=hidden;" vertex="1" parent="rpx8abucDV3JL9LRYKTu-75">
          <mxGeometry x="30" width="150" height="30" as="geometry" />
        </mxCell>
        <mxCell id="rpx8abucDV3JL9LRYKTu-78" value="" style="shape=partialRectangle;collapsible=0;dropTarget=0;pointerEvents=0;fillColor=none;top=0;left=0;bottom=0;right=0;points=[[0,0.5],[1,0.5]];portConstraint=eastwest;" vertex="1" parent="rpx8abucDV3JL9LRYKTu-74">
          <mxGeometry y="60" width="180" height="30" as="geometry" />
        </mxCell>
        <mxCell id="rpx8abucDV3JL9LRYKTu-79" value="" style="shape=partialRectangle;connectable=0;fillColor=none;top=0;left=0;bottom=0;right=0;editable=1;overflow=hidden;" vertex="1" parent="rpx8abucDV3JL9LRYKTu-78">
          <mxGeometry width="30" height="30" as="geometry" />
        </mxCell>
        <mxCell id="rpx8abucDV3JL9LRYKTu-80" value="" style="shape=partialRectangle;connectable=0;fillColor=none;top=0;left=0;bottom=0;right=0;align=left;spacingLeft=6;overflow=hidden;" vertex="1" parent="rpx8abucDV3JL9LRYKTu-78">
          <mxGeometry x="30" width="150" height="30" as="geometry" />
        </mxCell>
        <mxCell id="rpx8abucDV3JL9LRYKTu-81" value="" style="shape=partialRectangle;collapsible=0;dropTarget=0;pointerEvents=0;fillColor=none;top=0;left=0;bottom=0;right=0;points=[[0,0.5],[1,0.5]];portConstraint=eastwest;" vertex="1" parent="rpx8abucDV3JL9LRYKTu-74">
          <mxGeometry y="90" width="180" height="30" as="geometry" />
        </mxCell>
        <mxCell id="rpx8abucDV3JL9LRYKTu-82" value="" style="shape=partialRectangle;connectable=0;fillColor=none;top=0;left=0;bottom=0;right=0;editable=1;overflow=hidden;" vertex="1" parent="rpx8abucDV3JL9LRYKTu-81">
          <mxGeometry width="30" height="30" as="geometry" />
        </mxCell>
        <mxCell id="rpx8abucDV3JL9LRYKTu-83" value="" style="shape=partialRectangle;connectable=0;fillColor=none;top=0;left=0;bottom=0;right=0;align=left;spacingLeft=6;overflow=hidden;" vertex="1" parent="rpx8abucDV3JL9LRYKTu-81">
          <mxGeometry x="30" width="150" height="30" as="geometry" />
        </mxCell>
        <mxCell id="rpx8abucDV3JL9LRYKTu-113" value="Product_Colors" style="shape=table;startSize=30;container=1;collapsible=1;childLayout=tableLayout;fixedRows=1;rowLines=0;fontStyle=1;align=center;resizeLast=1;" vertex="1" parent="1">
          <mxGeometry x="100" y="400" width="180" height="130" as="geometry" />
        </mxCell>
        <mxCell id="rpx8abucDV3JL9LRYKTu-114" value="" style="shape=partialRectangle;collapsible=0;dropTarget=0;pointerEvents=0;fillColor=none;top=0;left=0;bottom=0;right=0;points=[[0,0.5],[1,0.5]];portConstraint=eastwest;" vertex="1" parent="rpx8abucDV3JL9LRYKTu-113">
          <mxGeometry y="30" width="180" height="30" as="geometry" />
        </mxCell>
        <mxCell id="rpx8abucDV3JL9LRYKTu-115" value="PK,FK1" style="shape=partialRectangle;connectable=0;fillColor=none;top=0;left=0;bottom=0;right=0;fontStyle=1;overflow=hidden;" vertex="1" parent="rpx8abucDV3JL9LRYKTu-114">
          <mxGeometry width="60" height="30" as="geometry" />
        </mxCell>
        <mxCell id="rpx8abucDV3JL9LRYKTu-116" value="product_id" style="shape=partialRectangle;connectable=0;fillColor=none;top=0;left=0;bottom=0;right=0;align=left;spacingLeft=6;fontStyle=5;overflow=hidden;" vertex="1" parent="rpx8abucDV3JL9LRYKTu-114">
          <mxGeometry x="60" width="120" height="30" as="geometry" />
        </mxCell>
        <mxCell id="rpx8abucDV3JL9LRYKTu-117" value="" style="shape=partialRectangle;collapsible=0;dropTarget=0;pointerEvents=0;fillColor=none;top=0;left=0;bottom=1;right=0;points=[[0,0.5],[1,0.5]];portConstraint=eastwest;" vertex="1" parent="rpx8abucDV3JL9LRYKTu-113">
          <mxGeometry y="60" width="180" height="30" as="geometry" />
        </mxCell>
        <mxCell id="rpx8abucDV3JL9LRYKTu-118" value="PK,FK2" style="shape=partialRectangle;connectable=0;fillColor=none;top=0;left=0;bottom=0;right=0;fontStyle=1;overflow=hidden;" vertex="1" parent="rpx8abucDV3JL9LRYKTu-117">
          <mxGeometry width="60" height="30" as="geometry" />
        </mxCell>
        <mxCell id="rpx8abucDV3JL9LRYKTu-119" value="color_id" style="shape=partialRectangle;connectable=0;fillColor=none;top=0;left=0;bottom=0;right=0;align=left;spacingLeft=6;fontStyle=5;overflow=hidden;" vertex="1" parent="rpx8abucDV3JL9LRYKTu-117">
          <mxGeometry x="60" width="120" height="30" as="geometry" />
        </mxCell>
        <mxCell id="rpx8abucDV3JL9LRYKTu-120" value="" style="shape=partialRectangle;collapsible=0;dropTarget=0;pointerEvents=0;fillColor=none;top=0;left=0;bottom=0;right=0;points=[[0,0.5],[1,0.5]];portConstraint=eastwest;" vertex="1" parent="rpx8abucDV3JL9LRYKTu-113">
          <mxGeometry y="90" width="180" height="30" as="geometry" />
        </mxCell>
        <mxCell id="rpx8abucDV3JL9LRYKTu-121" value="" style="shape=partialRectangle;connectable=0;fillColor=none;top=0;left=0;bottom=0;right=0;editable=1;overflow=hidden;" vertex="1" parent="rpx8abucDV3JL9LRYKTu-120">
          <mxGeometry width="60" height="30" as="geometry" />
        </mxCell>
        <mxCell id="rpx8abucDV3JL9LRYKTu-122" value="" style="shape=partialRectangle;connectable=0;fillColor=none;top=0;left=0;bottom=0;right=0;align=left;spacingLeft=6;overflow=hidden;" vertex="1" parent="rpx8abucDV3JL9LRYKTu-120">
          <mxGeometry x="60" width="120" height="30" as="geometry" />
        </mxCell>
        <mxCell id="rpx8abucDV3JL9LRYKTu-126" value="Price" style="shape=table;startSize=30;container=1;collapsible=1;childLayout=tableLayout;fixedRows=1;rowLines=0;fontStyle=1;align=center;resizeLast=1;" vertex="1" parent="1">
          <mxGeometry x="-30" y="760" width="180" height="130" as="geometry" />
        </mxCell>
        <mxCell id="rpx8abucDV3JL9LRYKTu-127" value="" style="shape=partialRectangle;collapsible=0;dropTarget=0;pointerEvents=0;fillColor=none;top=0;left=0;bottom=0;right=0;points=[[0,0.5],[1,0.5]];portConstraint=eastwest;" vertex="1" parent="rpx8abucDV3JL9LRYKTu-126">
          <mxGeometry y="30" width="180" height="30" as="geometry" />
        </mxCell>
        <mxCell id="rpx8abucDV3JL9LRYKTu-128" value="PK,FK1" style="shape=partialRectangle;connectable=0;fillColor=none;top=0;left=0;bottom=0;right=0;fontStyle=1;overflow=hidden;" vertex="1" parent="rpx8abucDV3JL9LRYKTu-127">
          <mxGeometry width="60" height="30" as="geometry" />
        </mxCell>
        <mxCell id="rpx8abucDV3JL9LRYKTu-129" value="size_id" style="shape=partialRectangle;connectable=0;fillColor=none;top=0;left=0;bottom=0;right=0;align=left;spacingLeft=6;fontStyle=5;overflow=hidden;" vertex="1" parent="rpx8abucDV3JL9LRYKTu-127">
          <mxGeometry x="60" width="120" height="30" as="geometry" />
        </mxCell>
        <mxCell id="rpx8abucDV3JL9LRYKTu-130" value="" style="shape=partialRectangle;collapsible=0;dropTarget=0;pointerEvents=0;fillColor=none;top=0;left=0;bottom=1;right=0;points=[[0,0.5],[1,0.5]];portConstraint=eastwest;" vertex="1" parent="rpx8abucDV3JL9LRYKTu-126">
          <mxGeometry y="60" width="180" height="30" as="geometry" />
        </mxCell>
        <mxCell id="rpx8abucDV3JL9LRYKTu-131" value="PK,FK2" style="shape=partialRectangle;connectable=0;fillColor=none;top=0;left=0;bottom=0;right=0;fontStyle=1;overflow=hidden;" vertex="1" parent="rpx8abucDV3JL9LRYKTu-130">
          <mxGeometry width="60" height="30" as="geometry" />
        </mxCell>
        <mxCell id="rpx8abucDV3JL9LRYKTu-132" value="color_id" style="shape=partialRectangle;connectable=0;fillColor=none;top=0;left=0;bottom=0;right=0;align=left;spacingLeft=6;fontStyle=5;overflow=hidden;" vertex="1" parent="rpx8abucDV3JL9LRYKTu-130">
          <mxGeometry x="60" width="120" height="30" as="geometry" />
        </mxCell>
        <mxCell id="rpx8abucDV3JL9LRYKTu-133" value="" style="shape=partialRectangle;collapsible=0;dropTarget=0;pointerEvents=0;fillColor=none;top=0;left=0;bottom=0;right=0;points=[[0,0.5],[1,0.5]];portConstraint=eastwest;" vertex="1" parent="rpx8abucDV3JL9LRYKTu-126">
          <mxGeometry y="90" width="180" height="30" as="geometry" />
        </mxCell>
        <mxCell id="rpx8abucDV3JL9LRYKTu-134" value="" style="shape=partialRectangle;connectable=0;fillColor=none;top=0;left=0;bottom=0;right=0;editable=1;overflow=hidden;" vertex="1" parent="rpx8abucDV3JL9LRYKTu-133">
          <mxGeometry width="60" height="30" as="geometry" />
        </mxCell>
        <mxCell id="rpx8abucDV3JL9LRYKTu-135" value="Price" style="shape=partialRectangle;connectable=0;fillColor=none;top=0;left=0;bottom=0;right=0;align=left;spacingLeft=6;overflow=hidden;" vertex="1" parent="rpx8abucDV3JL9LRYKTu-133">
          <mxGeometry x="60" width="120" height="30" as="geometry" />
        </mxCell>
        <mxCell id="rpx8abucDV3JL9LRYKTu-139" value="Customers" style="shape=table;startSize=30;container=1;collapsible=1;childLayout=tableLayout;fixedRows=1;rowLines=0;fontStyle=1;align=center;resizeLast=1;" vertex="1" parent="1">
          <mxGeometry x="600" y="-50" width="180" height="130" as="geometry" />
        </mxCell>
        <mxCell id="rpx8abucDV3JL9LRYKTu-140" value="" style="shape=partialRectangle;collapsible=0;dropTarget=0;pointerEvents=0;fillColor=none;top=0;left=0;bottom=1;right=0;points=[[0,0.5],[1,0.5]];portConstraint=eastwest;" vertex="1" parent="rpx8abucDV3JL9LRYKTu-139">
          <mxGeometry y="30" width="180" height="30" as="geometry" />
        </mxCell>
        <mxCell id="rpx8abucDV3JL9LRYKTu-141" value="PK" style="shape=partialRectangle;connectable=0;fillColor=none;top=0;left=0;bottom=0;right=0;fontStyle=1;overflow=hidden;" vertex="1" parent="rpx8abucDV3JL9LRYKTu-140">
          <mxGeometry width="30" height="30" as="geometry" />
        </mxCell>
        <mxCell id="rpx8abucDV3JL9LRYKTu-142" value="customer_id" style="shape=partialRectangle;connectable=0;fillColor=none;top=0;left=0;bottom=0;right=0;align=left;spacingLeft=6;fontStyle=5;overflow=hidden;" vertex="1" parent="rpx8abucDV3JL9LRYKTu-140">
          <mxGeometry x="30" width="150" height="30" as="geometry" />
        </mxCell>
        <mxCell id="rpx8abucDV3JL9LRYKTu-143" value="" style="shape=partialRectangle;collapsible=0;dropTarget=0;pointerEvents=0;fillColor=none;top=0;left=0;bottom=0;right=0;points=[[0,0.5],[1,0.5]];portConstraint=eastwest;" vertex="1" parent="rpx8abucDV3JL9LRYKTu-139">
          <mxGeometry y="60" width="180" height="30" as="geometry" />
        </mxCell>
        <mxCell id="rpx8abucDV3JL9LRYKTu-144" value="" style="shape=partialRectangle;connectable=0;fillColor=none;top=0;left=0;bottom=0;right=0;editable=1;overflow=hidden;" vertex="1" parent="rpx8abucDV3JL9LRYKTu-143">
          <mxGeometry width="30" height="30" as="geometry" />
        </mxCell>
        <mxCell id="rpx8abucDV3JL9LRYKTu-145" value="" style="shape=partialRectangle;connectable=0;fillColor=none;top=0;left=0;bottom=0;right=0;align=left;spacingLeft=6;overflow=hidden;" vertex="1" parent="rpx8abucDV3JL9LRYKTu-143">
          <mxGeometry x="30" width="150" height="30" as="geometry" />
        </mxCell>
        <mxCell id="rpx8abucDV3JL9LRYKTu-146" value="" style="shape=partialRectangle;collapsible=0;dropTarget=0;pointerEvents=0;fillColor=none;top=0;left=0;bottom=0;right=0;points=[[0,0.5],[1,0.5]];portConstraint=eastwest;" vertex="1" parent="rpx8abucDV3JL9LRYKTu-139">
          <mxGeometry y="90" width="180" height="30" as="geometry" />
        </mxCell>
        <mxCell id="rpx8abucDV3JL9LRYKTu-147" value="" style="shape=partialRectangle;connectable=0;fillColor=none;top=0;left=0;bottom=0;right=0;editable=1;overflow=hidden;" vertex="1" parent="rpx8abucDV3JL9LRYKTu-146">
          <mxGeometry width="30" height="30" as="geometry" />
        </mxCell>
        <mxCell id="rpx8abucDV3JL9LRYKTu-148" value="" style="shape=partialRectangle;connectable=0;fillColor=none;top=0;left=0;bottom=0;right=0;align=left;spacingLeft=6;overflow=hidden;" vertex="1" parent="rpx8abucDV3JL9LRYKTu-146">
          <mxGeometry x="30" width="150" height="30" as="geometry" />
        </mxCell>
        <mxCell id="rpx8abucDV3JL9LRYKTu-165" value="Order_detail" style="shape=table;startSize=30;container=1;collapsible=1;childLayout=tableLayout;fixedRows=1;rowLines=0;fontStyle=1;align=center;resizeLast=1;" vertex="1" parent="1">
          <mxGeometry x="335" y="140" width="180" height="160" as="geometry" />
        </mxCell>
        <mxCell id="rpx8abucDV3JL9LRYKTu-166" value="" style="shape=partialRectangle;collapsible=0;dropTarget=0;pointerEvents=0;fillColor=none;top=0;left=0;bottom=0;right=0;points=[[0,0.5],[1,0.5]];portConstraint=eastwest;" vertex="1" parent="rpx8abucDV3JL9LRYKTu-165">
          <mxGeometry y="30" width="180" height="30" as="geometry" />
        </mxCell>
        <mxCell id="rpx8abucDV3JL9LRYKTu-167" value="PK,FK1" style="shape=partialRectangle;connectable=0;fillColor=none;top=0;left=0;bottom=0;right=0;fontStyle=1;overflow=hidden;" vertex="1" parent="rpx8abucDV3JL9LRYKTu-166">
          <mxGeometry width="60" height="30" as="geometry" />
        </mxCell>
        <mxCell id="rpx8abucDV3JL9LRYKTu-168" value="Product_id" style="shape=partialRectangle;connectable=0;fillColor=none;top=0;left=0;bottom=0;right=0;align=left;spacingLeft=6;fontStyle=5;overflow=hidden;" vertex="1" parent="rpx8abucDV3JL9LRYKTu-166">
          <mxGeometry x="60" width="120" height="30" as="geometry" />
        </mxCell>
        <mxCell id="rpx8abucDV3JL9LRYKTu-169" value="" style="shape=partialRectangle;collapsible=0;dropTarget=0;pointerEvents=0;fillColor=none;top=0;left=0;bottom=1;right=0;points=[[0,0.5],[1,0.5]];portConstraint=eastwest;" vertex="1" parent="rpx8abucDV3JL9LRYKTu-165">
          <mxGeometry y="60" width="180" height="30" as="geometry" />
        </mxCell>
        <mxCell id="rpx8abucDV3JL9LRYKTu-170" value="PK,FK2" style="shape=partialRectangle;connectable=0;fillColor=none;top=0;left=0;bottom=0;right=0;fontStyle=1;overflow=hidden;" vertex="1" parent="rpx8abucDV3JL9LRYKTu-169">
          <mxGeometry width="60" height="30" as="geometry" />
        </mxCell>
        <mxCell id="rpx8abucDV3JL9LRYKTu-171" value="order_id" style="shape=partialRectangle;connectable=0;fillColor=none;top=0;left=0;bottom=0;right=0;align=left;spacingLeft=6;fontStyle=5;overflow=hidden;" vertex="1" parent="rpx8abucDV3JL9LRYKTu-169">
          <mxGeometry x="60" width="120" height="30" as="geometry" />
        </mxCell>
        <mxCell id="rpx8abucDV3JL9LRYKTu-172" value="" style="shape=partialRectangle;collapsible=0;dropTarget=0;pointerEvents=0;fillColor=none;top=0;left=0;bottom=0;right=0;points=[[0,0.5],[1,0.5]];portConstraint=eastwest;" vertex="1" parent="rpx8abucDV3JL9LRYKTu-165">
          <mxGeometry y="90" width="180" height="30" as="geometry" />
        </mxCell>
        <mxCell id="rpx8abucDV3JL9LRYKTu-173" value="" style="shape=partialRectangle;connectable=0;fillColor=none;top=0;left=0;bottom=0;right=0;editable=1;overflow=hidden;" vertex="1" parent="rpx8abucDV3JL9LRYKTu-172">
          <mxGeometry width="60" height="30" as="geometry" />
        </mxCell>
        <mxCell id="rpx8abucDV3JL9LRYKTu-174" value="price" style="shape=partialRectangle;connectable=0;fillColor=none;top=0;left=0;bottom=0;right=0;align=left;spacingLeft=6;overflow=hidden;" vertex="1" parent="rpx8abucDV3JL9LRYKTu-172">
          <mxGeometry x="60" width="120" height="30" as="geometry" />
        </mxCell>
        <mxCell id="rpx8abucDV3JL9LRYKTu-175" value="" style="shape=partialRectangle;collapsible=0;dropTarget=0;pointerEvents=0;fillColor=none;top=0;left=0;bottom=0;right=0;points=[[0,0.5],[1,0.5]];portConstraint=eastwest;" vertex="1" parent="rpx8abucDV3JL9LRYKTu-165">
          <mxGeometry y="120" width="180" height="30" as="geometry" />
        </mxCell>
        <mxCell id="rpx8abucDV3JL9LRYKTu-176" value="" style="shape=partialRectangle;connectable=0;fillColor=none;top=0;left=0;bottom=0;right=0;editable=1;overflow=hidden;" vertex="1" parent="rpx8abucDV3JL9LRYKTu-175">
          <mxGeometry width="60" height="30" as="geometry" />
        </mxCell>
        <mxCell id="rpx8abucDV3JL9LRYKTu-177" value="quantity" style="shape=partialRectangle;connectable=0;fillColor=none;top=0;left=0;bottom=0;right=0;align=left;spacingLeft=6;overflow=hidden;" vertex="1" parent="rpx8abucDV3JL9LRYKTu-175">
          <mxGeometry x="60" width="120" height="30" as="geometry" />
        </mxCell>
        <mxCell id="rpx8abucDV3JL9LRYKTu-178" value="Categories" style="shape=table;startSize=30;container=1;collapsible=1;childLayout=tableLayout;fixedRows=1;rowLines=0;fontStyle=1;align=center;resizeLast=1;" vertex="1" parent="1">
          <mxGeometry x="-150" y="-50" width="180" height="130" as="geometry" />
        </mxCell>
        <mxCell id="rpx8abucDV3JL9LRYKTu-179" value="" style="shape=partialRectangle;collapsible=0;dropTarget=0;pointerEvents=0;fillColor=none;top=0;left=0;bottom=1;right=0;points=[[0,0.5],[1,0.5]];portConstraint=eastwest;" vertex="1" parent="rpx8abucDV3JL9LRYKTu-178">
          <mxGeometry y="30" width="180" height="30" as="geometry" />
        </mxCell>
        <mxCell id="rpx8abucDV3JL9LRYKTu-180" value="PK" style="shape=partialRectangle;connectable=0;fillColor=none;top=0;left=0;bottom=0;right=0;fontStyle=1;overflow=hidden;" vertex="1" parent="rpx8abucDV3JL9LRYKTu-179">
          <mxGeometry width="30" height="30" as="geometry" />
        </mxCell>
        <mxCell id="rpx8abucDV3JL9LRYKTu-181" value="category_id" style="shape=partialRectangle;connectable=0;fillColor=none;top=0;left=0;bottom=0;right=0;align=left;spacingLeft=6;fontStyle=5;overflow=hidden;" vertex="1" parent="rpx8abucDV3JL9LRYKTu-179">
          <mxGeometry x="30" width="150" height="30" as="geometry" />
        </mxCell>
        <mxCell id="rpx8abucDV3JL9LRYKTu-182" value="" style="shape=partialRectangle;collapsible=0;dropTarget=0;pointerEvents=0;fillColor=none;top=0;left=0;bottom=0;right=0;points=[[0,0.5],[1,0.5]];portConstraint=eastwest;" vertex="1" parent="rpx8abucDV3JL9LRYKTu-178">
          <mxGeometry y="60" width="180" height="20" as="geometry" />
        </mxCell>
        <mxCell id="rpx8abucDV3JL9LRYKTu-183" value="" style="shape=partialRectangle;connectable=0;fillColor=none;top=0;left=0;bottom=0;right=0;editable=1;overflow=hidden;" vertex="1" parent="rpx8abucDV3JL9LRYKTu-182">
          <mxGeometry width="30" height="20" as="geometry" />
        </mxCell>
        <mxCell id="rpx8abucDV3JL9LRYKTu-184" value="" style="shape=partialRectangle;connectable=0;fillColor=none;top=0;left=0;bottom=0;right=0;align=left;spacingLeft=6;overflow=hidden;" vertex="1" parent="rpx8abucDV3JL9LRYKTu-182">
          <mxGeometry x="30" width="150" height="20" as="geometry" />
        </mxCell>
        <mxCell id="rpx8abucDV3JL9LRYKTu-185" value="" style="shape=partialRectangle;collapsible=0;dropTarget=0;pointerEvents=0;fillColor=none;top=0;left=0;bottom=0;right=0;points=[[0,0.5],[1,0.5]];portConstraint=eastwest;" vertex="1" parent="rpx8abucDV3JL9LRYKTu-178">
          <mxGeometry y="80" width="180" height="40" as="geometry" />
        </mxCell>
        <mxCell id="rpx8abucDV3JL9LRYKTu-186" value="" style="shape=partialRectangle;connectable=0;fillColor=none;top=0;left=0;bottom=0;right=0;editable=1;overflow=hidden;" vertex="1" parent="rpx8abucDV3JL9LRYKTu-185">
          <mxGeometry width="30" height="40" as="geometry" />
        </mxCell>
        <mxCell id="rpx8abucDV3JL9LRYKTu-187" value="" style="shape=partialRectangle;connectable=0;fillColor=none;top=0;left=0;bottom=0;right=0;align=left;spacingLeft=6;overflow=hidden;" vertex="1" parent="rpx8abucDV3JL9LRYKTu-185">
          <mxGeometry x="30" width="150" height="40" as="geometry" />
        </mxCell>
        <mxCell id="rpx8abucDV3JL9LRYKTu-191" value="brand" style="shape=table;startSize=30;container=1;collapsible=1;childLayout=tableLayout;fixedRows=1;rowLines=0;fontStyle=1;align=center;resizeLast=1;" vertex="1" parent="1">
          <mxGeometry x="120" y="-50" width="180" height="130" as="geometry" />
        </mxCell>
        <mxCell id="rpx8abucDV3JL9LRYKTu-192" value="" style="shape=partialRectangle;collapsible=0;dropTarget=0;pointerEvents=0;fillColor=none;top=0;left=0;bottom=1;right=0;points=[[0,0.5],[1,0.5]];portConstraint=eastwest;" vertex="1" parent="rpx8abucDV3JL9LRYKTu-191">
          <mxGeometry y="30" width="180" height="30" as="geometry" />
        </mxCell>
        <mxCell id="rpx8abucDV3JL9LRYKTu-193" value="PK" style="shape=partialRectangle;connectable=0;fillColor=none;top=0;left=0;bottom=0;right=0;fontStyle=1;overflow=hidden;" vertex="1" parent="rpx8abucDV3JL9LRYKTu-192">
          <mxGeometry width="30" height="30" as="geometry" />
        </mxCell>
        <mxCell id="rpx8abucDV3JL9LRYKTu-194" value="brand_id" style="shape=partialRectangle;connectable=0;fillColor=none;top=0;left=0;bottom=0;right=0;align=left;spacingLeft=6;fontStyle=5;overflow=hidden;" vertex="1" parent="rpx8abucDV3JL9LRYKTu-192">
          <mxGeometry x="30" width="150" height="30" as="geometry" />
        </mxCell>
        <mxCell id="rpx8abucDV3JL9LRYKTu-195" value="" style="shape=partialRectangle;collapsible=0;dropTarget=0;pointerEvents=0;fillColor=none;top=0;left=0;bottom=0;right=0;points=[[0,0.5],[1,0.5]];portConstraint=eastwest;" vertex="1" parent="rpx8abucDV3JL9LRYKTu-191">
          <mxGeometry y="60" width="180" height="30" as="geometry" />
        </mxCell>
        <mxCell id="rpx8abucDV3JL9LRYKTu-196" value="" style="shape=partialRectangle;connectable=0;fillColor=none;top=0;left=0;bottom=0;right=0;editable=1;overflow=hidden;" vertex="1" parent="rpx8abucDV3JL9LRYKTu-195">
          <mxGeometry width="30" height="30" as="geometry" />
        </mxCell>
        <mxCell id="rpx8abucDV3JL9LRYKTu-197" value="" style="shape=partialRectangle;connectable=0;fillColor=none;top=0;left=0;bottom=0;right=0;align=left;spacingLeft=6;overflow=hidden;" vertex="1" parent="rpx8abucDV3JL9LRYKTu-195">
          <mxGeometry x="30" width="150" height="30" as="geometry" />
        </mxCell>
        <mxCell id="rpx8abucDV3JL9LRYKTu-198" value="" style="shape=partialRectangle;collapsible=0;dropTarget=0;pointerEvents=0;fillColor=none;top=0;left=0;bottom=0;right=0;points=[[0,0.5],[1,0.5]];portConstraint=eastwest;" vertex="1" parent="rpx8abucDV3JL9LRYKTu-191">
          <mxGeometry y="90" width="180" height="30" as="geometry" />
        </mxCell>
        <mxCell id="rpx8abucDV3JL9LRYKTu-199" value="" style="shape=partialRectangle;connectable=0;fillColor=none;top=0;left=0;bottom=0;right=0;editable=1;overflow=hidden;" vertex="1" parent="rpx8abucDV3JL9LRYKTu-198">
          <mxGeometry width="30" height="30" as="geometry" />
        </mxCell>
        <mxCell id="rpx8abucDV3JL9LRYKTu-200" value="" style="shape=partialRectangle;connectable=0;fillColor=none;top=0;left=0;bottom=0;right=0;align=left;spacingLeft=6;overflow=hidden;" vertex="1" parent="rpx8abucDV3JL9LRYKTu-198">
          <mxGeometry x="30" width="150" height="30" as="geometry" />
        </mxCell>
      </root>
    </mxGraphModel>
  </diagram>
</mxfile>
